<?xml version="1.0" standalone="no"?>
<!DOCTYPE svg PUBLIC "-//W3C//DTD SVG 20010904//EN"
 "http://www.w3.org/TR/2001/REC-SVG-20010904/DTD/svg10.dtd">
<svg version="1.0" xmlns="http://www.w3.org/2000/svg"
 width="1024.000000pt" height="1024.000000pt" viewBox="0 0 1024.000000 1024.000000"
 preserveAspectRatio="xMidYMid meet">
<metadata>
Created by potrace 1.11, written by Peter Selinger 2001-2013
</metadata>
<g transform="translate(0.000000,1024.000000) scale(0.100000,-0.100000)"
fill="#000000" stroke="none">
<path d="M3327 8904 c-1 -1 -33 -5 -72 -9 -109 -11 -164 -19 -213 -34 -18 -5
-35 -10 -37 -11 -48 -9 -66 -14 -71 -21 -3 -5 -12 -9 -20 -9 -16 0 -136 -52
-164 -70 -8 -6 -24 -14 -35 -19 -20 -10 -152 -93 -170 -108 -5 -5 -80 -54
-165 -109 -136 -89 -316 -188 -375 -207 -11 -3 -38 -13 -60 -22 -22 -9 -69
-25 -105 -36 -36 -11 -72 -23 -80 -26 -8 -3 -19 -7 -25 -7 -5 -1 -36 -7 -67
-14 -32 -8 -70 -15 -85 -17 -16 -2 -28 -4 -28 -5 0 -6 -117 -20 -220 -27 -220
-15 -574 -2 -730 27 -27 5 -70 12 -95 15 -54 8 -316 73 -339 85 -9 4 -36 14
-61 21 -25 7 -49 16 -55 19 -15 10 -55 19 -52 12 2 -4 8 -18 14 -32 91 -212
228 -442 354 -597 33 -40 59 -75 59 -79 0 -9 249 -254 298 -294 24 -19 56 -45
70 -58 15 -12 43 -33 62 -44 19 -12 42 -29 50 -37 8 -9 26 -23 40 -31 14 -8
75 -44 135 -80 108 -65 237 -130 255 -130 6 0 10 -4 10 -10 0 -5 5 -10 12 -10
6 0 55 -17 107 -39 137 -55 136 -54 141 -56 3 0 30 -8 60 -18 30 -9 60 -17 65
-18 6 0 17 -5 26 -10 9 -4 31 -11 49 -14 18 -3 41 -10 51 -16 11 -5 19 -8 19
-5 0 3 21 -1 48 -9 26 -8 58 -16 72 -19 14 -3 36 -8 50 -11 103 -23 325 -57
460 -70 190 -19 593 -26 740 -13 41 4 75 8 75 8 0 2 20 5 75 14 93 15 122 22
210 46 41 11 84 23 95 26 40 11 33 8 170 61 219 84 441 228 587 379 69 72 138
158 138 173 0 6 4 11 9 11 21 0 115 218 129 300 7 46 7 264 -1 325 -37 295
-168 534 -381 695 -29 22 -58 40 -64 40 -5 0 -12 4 -14 9 -6 16 -207 104 -267
116 -9 2 -29 8 -46 15 -16 6 -30 11 -30 10 0 -2 -64 9 -100 17 -23 5 -44 8
-135 18 -57 7 -367 14 -373 9z"/>
<path d="M6688 8905 c-2 -2 -43 -6 -93 -10 -110 -8 -127 -10 -230 -32 -11 -2
-31 -6 -45 -9 -24 -5 -127 -39 -200 -66 -44 -16 -189 -100 -225 -130 -107 -89
-206 -212 -263 -328 -25 -50 -61 -152 -68 -190 -3 -14 -7 -32 -11 -40 -10 -26
-18 -80 -28 -190 -17 -188 1 -297 71 -449 30 -64 95 -168 136 -216 31 -37 159
-162 189 -185 18 -14 38 -31 45 -37 7 -7 17 -13 22 -13 6 0 12 -4 14 -8 6 -16
201 -128 293 -169 105 -47 239 -94 340 -119 6 -1 21 -4 35 -7 14 -3 32 -8 40
-11 8 -2 33 -7 55 -10 22 -3 51 -8 64 -10 22 -5 85 -12 186 -22 50 -4 427 -4
475 0 19 2 78 7 130 11 112 8 135 10 215 20 97 12 100 12 100 15 0 1 16 4 35
5 37 4 95 13 95 15 0 1 14 3 30 5 17 2 41 7 55 11 14 3 35 8 48 10 53 10 71
14 147 34 44 12 89 23 99 25 10 3 35 10 55 17 20 7 39 13 44 14 4 1 8 2 10 4
1 1 11 3 22 5 10 2 28 8 40 13 52 24 157 62 170 62 8 0 15 5 15 10 0 6 3 9 8
9 21 -4 245 105 367 179 97 60 107 66 119 75 158 114 220 164 289 230 22 20
42 37 46 38 11 1 200 213 257 289 70 94 164 237 164 250 0 5 4 10 8 10 8 0
151 277 171 332 l10 27 -72 -25 c-40 -14 -79 -28 -87 -32 -27 -9 -34 -11 -165
-46 -71 -19 -148 -37 -170 -40 -22 -4 -47 -8 -55 -11 -8 -2 -37 -7 -65 -10
-27 -4 -61 -8 -75 -10 -178 -26 -818 -26 -861 1 -4 2 -20 6 -36 8 -159 20
-382 94 -548 181 -92 48 -128 68 -135 75 -7 7 -43 29 -60 37 -8 4 -17 9 -20
13 -4 6 -120 84 -169 115 -8 6 -41 27 -73 48 -31 20 -62 37 -67 37 -6 0 -11 5
-11 10 0 6 -4 10 -10 10 -5 0 -46 18 -91 40 -45 22 -88 40 -96 40 -7 0 -25 7
-38 16 -14 9 -25 13 -25 9 0 -4 -7 -2 -15 5 -8 7 -15 10 -15 7 0 -4 -17 0 -38
7 -34 12 -59 17 -157 31 -11 2 -40 6 -65 10 -43 6 -326 15 -332 10z"/>
<path d="M9469 6443 c-24 -16 -92 -53 -150 -82 -58 -30 -106 -60 -106 -65 -3
-41 -16 -118 -38 -221 -14 -66 -28 -129 -30 -140 -2 -11 -8 -35 -14 -54 -6
-19 -8 -38 -5 -42 3 -5 0 -9 -5 -9 -6 0 -10 -3 -9 -7 4 -15 -53 -216 -79 -283
-3 -8 -7 -19 -9 -25 -13 -52 -128 -349 -176 -454 -26 -57 -57 -119 -126 -256
-9 -16 -18 -32 -21 -35 -3 -3 -17 -25 -30 -50 -59 -113 -233 -358 -325 -460
-197 -215 -386 -363 -606 -472 -50 -25 -102 -48 -122 -53 -5 -2 -10 -4 -13 -5
-3 -1 -8 -3 -12 -4 -5 -1 -12 -4 -18 -8 -15 -9 -166 -50 -195 -53 -14 -1 -43
-7 -65 -13 -22 -5 -47 -10 -55 -10 -8 -1 -40 -4 -70 -7 -68 -7 -367 -8 -435 0
-27 3 -81 7 -120 10 -38 3 -86 7 -105 10 -19 2 -55 6 -80 9 -43 5 -64 8 -115
19 -11 3 -40 8 -65 11 -25 3 -60 10 -77 15 -18 5 -33 7 -33 4 0 -3 -7 0 -15 7
-8 7 -15 10 -15 7 0 -7 -213 51 -285 77 -11 5 -31 12 -45 16 -14 4 -34 12 -45
16 -11 4 -22 8 -25 9 -3 0 -27 11 -54 23 -27 12 -50 22 -53 22 -10 0 -184 88
-243 124 -68 40 -211 135 -220 145 -29 34 -40 34 -84 -3 -24 -20 -49 -36 -55
-36 -6 0 -11 -4 -11 -8 0 -7 -52 -41 -134 -89 -96 -56 -243 -128 -332 -164
-74 -29 -241 -87 -274 -94 -8 -2 -48 -12 -87 -23 -40 -12 -73 -19 -73 -17 0 2
-18 -2 -39 -10 -22 -7 -42 -11 -44 -8 -3 3 -12 1 -19 -3 -7 -5 -24 -10 -38
-10 -14 -1 -25 -3 -25 -4 0 -3 -89 -17 -165 -26 -19 -2 -45 -6 -57 -8 -11 -3
-59 -7 -105 -11 -45 -3 -105 -8 -133 -11 -60 -5 -385 -6 -435 0 -49 5 -122 16
-140 21 -8 2 -31 7 -50 10 -19 3 -51 11 -70 17 -19 7 -39 12 -45 13 -12 1 -53
13 -80 25 -11 4 -45 18 -75 30 -237 94 -482 275 -685 505 -33 37 -67 75 -75
84 -8 9 -33 41 -55 71 -21 30 -42 57 -45 60 -4 3 -24 32 -45 65 -22 33 -42 62
-45 65 -16 13 -180 305 -180 319 0 6 -5 11 -10 11 -6 0 -9 3 -8 8 1 4 -22 54
-50 112 -50 103 -147 329 -163 379 -4 14 -19 58 -34 96 -15 39 -28 75 -29 80
-2 6 -6 17 -9 25 -8 23 -49 149 -51 163 -2 7 -6 19 -9 27 -13 33 -99 347 -110
405 -16 75 -20 84 -51 98 -79 37 -147 67 -151 67 -3 0 -33 14 -67 30 -72 35
-71 35 -64 13 5 -19 15 -101 20 -173 2 -25 6 -61 10 -80 6 -39 16 -133 21
-198 5 -55 14 -140 19 -172 3 -14 7 -54 11 -90 5 -60 8 -87 20 -195 3 -22 7
-67 10 -100 4 -33 8 -71 10 -85 3 -14 7 -54 10 -90 3 -36 8 -81 11 -100 3 -19
7 -50 10 -69 2 -19 7 -48 10 -65 3 -17 7 -42 9 -56 2 -14 11 -58 20 -99 9 -40
19 -80 20 -90 2 -9 4 -16 5 -16 1 0 3 -7 5 -15 2 -8 13 -46 25 -85 11 -38 22
-77 25 -85 7 -26 53 -154 71 -195 17 -41 34 -86 37 -95 3 -12 150 -300 178
-350 18 -30 51 -85 75 -121 24 -37 44 -71 44 -77 0 -6 4 -12 8 -14 5 -1 28
-32 52 -68 39 -58 97 -137 110 -150 3 -3 18 -23 35 -45 52 -71 111 -141 235
-278 95 -106 284 -290 419 -407 35 -30 69 -60 75 -65 6 -6 34 -28 61 -50 28
-22 52 -42 55 -45 3 -3 30 -24 60 -48 30 -23 60 -45 65 -50 52 -41 193 -141
309 -218 77 -52 146 -98 153 -104 7 -5 15 -10 19 -10 4 0 15 -6 23 -14 9 -7
36 -24 61 -37 25 -13 47 -26 50 -29 6 -6 26 -18 125 -73 212 -119 394 -209
640 -317 94 -41 111 -48 134 -55 13 -4 40 -14 60 -23 20 -9 41 -17 46 -18 6
-2 55 -19 110 -39 80 -29 215 -72 280 -89 6 -2 17 -6 25 -9 13 -4 45 -12 135
-34 11 -2 25 -5 30 -7 6 -1 37 -8 70 -15 33 -7 79 -17 102 -22 127 -28 337
-30 420 -5 10 3 32 8 48 11 29 5 40 7 120 26 22 6 47 11 55 13 90 16 462 142
625 211 101 42 120 50 127 48 5 -2 8 2 8 7 0 6 5 10 11 10 6 0 27 7 47 16 62
28 454 224 497 248 22 12 58 33 80 45 22 13 65 38 96 57 31 19 61 34 67 34 6
0 12 3 14 8 2 4 46 34 98 66 52 33 97 63 100 66 3 3 26 18 52 33 26 15 53 33
60 40 7 7 28 22 46 32 17 11 32 23 32 27 0 4 7 8 15 8 8 0 15 4 15 9 0 5 8 12
18 15 9 3 29 16 44 28 61 52 69 58 77 58 4 0 19 10 32 23 13 13 44 38 69 57
243 187 562 489 745 705 22 26 49 57 60 68 11 12 31 38 45 57 13 19 29 40 35
45 6 6 31 37 56 70 24 33 47 62 50 65 13 11 199 299 199 308 0 6 3 12 8 14 4
2 15 17 24 33 28 48 182 358 195 391 6 16 23 61 38 99 14 39 30 79 35 90 8 18
22 61 25 75 1 3 9 32 19 65 10 33 20 71 23 84 2 13 8 32 14 43 5 10 8 18 5 18
-3 0 1 21 9 47 8 25 14 49 13 52 0 3 1 8 2 11 3 9 10 44 15 80 3 19 7 44 9 56
5 26 17 126 31 254 3 30 8 71 10 90 2 19 7 64 11 100 3 36 8 79 10 95 2 17 6
55 8 85 3 30 8 75 11 100 9 78 15 133 20 190 3 30 8 73 11 95 3 22 7 58 9 80
15 164 20 209 31 283 6 39 0 40 -57 5z"/>
</g>
</svg>
