<?xml version="1.0" standalone="no"?>
<!DOCTYPE svg PUBLIC "-//W3C//DTD SVG 20010904//EN"
 "http://www.w3.org/TR/2001/REC-SVG-20010904/DTD/svg10.dtd">
<svg version="1.0" xmlns="http://www.w3.org/2000/svg"
 width="720.000000pt" height="720.000000pt" viewBox="0 0 720.000000 720.000000"
 preserveAspectRatio="xMidYMid meet">
<metadata>
Created by potrace 1.11, written by Peter Selinger 2001-2013
</metadata>
<g transform="translate(0.000000,720.000000) scale(0.100000,-0.100000)"
fill="#000000" stroke="none">
<path d="M2366 6282 c-2 -1 -32 -4 -67 -7 -164 -12 -316 -65 -457 -159 -30
-20 -58 -36 -63 -36 -5 0 -9 -4 -9 -10 0 -5 -5 -10 -10 -10 -6 0 -19 -8 -30
-18 -18 -17 -227 -146 -239 -148 -3 0 -28 -11 -56 -24 -27 -13 -52 -25 -55
-25 -3 0 -30 -9 -60 -20 -30 -10 -57 -18 -60 -18 -3 0 -15 -3 -28 -8 -12 -5
-35 -11 -50 -14 -59 -12 -68 -14 -97 -20 -144 -26 -482 -26 -655 1 -121 18
-286 60 -375 94 -40 16 -56 20 -52 12 2 -4 12 -25 21 -47 129 -291 334 -549
589 -739 26 -20 51 -36 56 -36 5 0 11 -4 13 -8 7 -19 172 -109 318 -175 77
-35 301 -108 311 -101 4 2 10 0 13 -5 3 -5 36 -15 73 -22 38 -7 70 -14 73 -14
3 -1 19 -4 35 -8 17 -4 46 -9 65 -11 19 -3 71 -10 116 -16 139 -18 184 -21
359 -24 151 -3 205 0 335 19 38 5 37 5 125 25 33 8 62 14 65 15 3 0 10 3 16 7
6 4 21 9 35 11 64 13 242 96 327 154 35 24 65 43 67 43 17 0 150 134 202 204
94 127 125 231 118 396 -13 319 -158 546 -421 658 -77 33 -192 64 -241 66 -18
0 -33 3 -33 6 0 3 -24 6 -53 7 -28 1 -90 3 -135 5 -46 2 -85 2 -86 0z"/>
<path d="M4737 6283 c-1 -1 -38 -4 -82 -7 -111 -7 -267 -38 -292 -59 -7 -5
-13 -6 -13 -3 0 4 -10 1 -22 -6 -13 -7 -25 -13 -28 -13 -9 -1 -85 -39 -90 -45
-3 -3 -23 -17 -45 -32 -86 -57 -187 -181 -210 -258 -1 -3 -8 -21 -16 -40 -20
-44 -32 -92 -46 -175 -9 -52 -8 -242 1 -278 25 -100 99 -226 184 -312 91 -92
107 -103 267 -202 107 -66 346 -139 522 -160 78 -9 365 -9 483 0 140 12 158
14 270 32 14 2 42 6 64 9 21 4 42 8 46 11 4 3 25 7 46 10 152 23 479 143 619
228 105 64 201 129 258 174 63 51 203 186 237 229 8 11 31 40 51 64 48 61 119
167 119 179 0 5 4 11 8 13 12 4 122 226 122 244 0 16 -11 18 -26 5 -12 -11
-196 -68 -259 -81 -27 -5 -61 -12 -74 -14 -89 -19 -212 -29 -386 -31 -427 -6
-607 47 -964 283 -85 56 -161 102 -168 102 -7 0 -13 3 -13 8 0 4 -12 13 -27
19 -65 28 -109 47 -118 50 -59 17 -121 33 -148 37 -17 2 -32 5 -32 6 0 4 -234
17 -238 13z"/>
<path d="M6659 4537 c-35 -23 -102 -57 -113 -57 -4 0 -12 -5 -19 -10 -7 -6
-20 -16 -30 -23 -17 -12 -21 -25 -32 -97 -5 -36 -11 -62 -21 -102 -3 -13 -7
-32 -8 -43 -7 -41 -49 -193 -79 -285 -17 -52 -32 -99 -33 -105 -1 -5 -8 -23
-15 -40 -7 -16 -13 -32 -14 -35 -25 -94 -223 -491 -277 -555 -5 -5 -30 -39
-56 -75 -61 -84 -91 -118 -183 -210 -115 -112 -202 -175 -329 -237 -118 -57
-184 -81 -275 -97 -16 -3 -46 -9 -65 -12 -73 -15 -419 -8 -535 10 -16 3 -50 8
-75 11 -92 13 -115 18 -209 41 -119 30 -103 26 -186 53 -38 13 -74 27 -80 30
-5 4 -36 17 -69 30 -32 13 -77 34 -100 47 -22 13 -60 33 -83 45 -24 11 -43 24
-43 29 0 6 -5 10 -10 10 -6 0 -36 18 -66 41 -51 38 -57 40 -73 25 -10 -9 -23
-16 -29 -16 -7 0 -12 -4 -12 -9 0 -20 -213 -140 -345 -194 -61 -25 -166 -61
-175 -60 -3 0 -16 -4 -30 -9 -14 -5 -34 -12 -45 -14 -11 -3 -24 -6 -30 -8 -5
-2 -28 -6 -50 -11 -42 -8 -63 -12 -92 -19 -29 -6 -95 -16 -143 -21 -25 -3 -70
-8 -100 -11 -82 -9 -367 -10 -430 -1 -76 11 -82 13 -105 20 -11 3 -31 8 -45
11 -37 7 -140 46 -178 68 -18 10 -39 18 -47 18 -8 0 -15 4 -15 8 0 5 -15 15
-32 24 -87 41 -303 229 -375 325 -15 21 -30 40 -34 43 -12 11 -87 119 -139
200 -48 75 -200 368 -200 385 0 4 -7 21 -15 38 -40 89 -153 413 -170 490 -2
12 -18 76 -35 142 l-31 120 -77 34 c-42 18 -92 40 -110 48 l-33 14 5 -33 c3
-18 8 -58 11 -88 2 -30 7 -75 10 -100 2 -25 7 -70 10 -100 3 -30 7 -71 10 -90
2 -19 7 -62 10 -95 3 -33 8 -78 11 -100 3 -22 7 -58 9 -80 18 -182 33 -309 40
-340 11 -56 18 -91 20 -104 1 -9 4 -23 7 -31 3 -8 12 -37 18 -65 19 -74 80
-256 99 -293 5 -9 26 -53 46 -97 51 -108 218 -392 245 -415 3 -3 31 -39 62
-80 31 -41 70 -91 87 -110 107 -120 146 -162 230 -244 120 -117 111 -108 216
-196 50 -41 92 -77 95 -80 19 -20 186 -140 285 -206 178 -119 312 -198 500
-293 96 -49 281 -134 295 -137 3 0 19 -6 35 -13 85 -36 216 -82 315 -111 25
-8 51 -18 58 -23 6 -5 12 -7 12 -4 0 3 41 -6 92 -18 50 -13 94 -24 97 -23 3 0
8 -1 11 -2 3 -1 14 -3 25 -5 11 -1 43 -6 70 -11 106 -16 202 -5 400 47 134 35
388 122 409 141 6 4 16 8 22 8 7 0 47 16 88 35 42 19 81 35 86 35 6 0 10 5 10
12 0 6 3 9 6 5 9 -9 267 126 441 231 369 222 681 473 953 768 103 112 270 323
270 343 0 5 3 11 8 13 8 3 67 90 106 158 34 59 137 259 135 262 -1 2 8 23 19
48 71 154 134 400 157 610 3 30 8 71 10 90 2 19 7 62 10 95 6 59 10 103 20
195 11 102 15 137 20 180 5 46 13 122 20 197 2 23 7 62 10 87 3 25 3 46 1 46
-2 0 -18 -10 -37 -23z"/>
</g>
</svg>
